<?xml version="1.0" encoding="utf-8"?>
<!-- Generator: Adobe Illustrator 19.2.0, SVG Export Plug-In . SVG Version: 6.00 Build 0)  -->
<svg version="1.1" id="Layer_1" xmlns="http://www.w3.org/2000/svg" xmlns:xlink="http://www.w3.org/1999/xlink" x="0px" y="0px"
	 viewBox="0 0 612 792" style="enable-background:new 0 0 612 792;" xml:space="preserve">
<style type="text/css">
	.st0{stroke:#000000;stroke-miterlimit:10;}
	.st1{fill:none;stroke:#FFFFFF;stroke-width:6;stroke-linecap:round;stroke-linejoin:round;stroke-miterlimit:10;}
</style>
<rect x="103.4" y="151.6" class="st0" width="390.7" height="390.7"/>
<path id="cutlery" class="st1" d="M313.2,322.1c0,0,1.9,113.1,2.2,134c0.4,20.9-0.4,44.5,8.2,44.1c8.6-0.4,10.5-17.6,10.1-50.8
	c-0.4-33.3-5.2-83.4,3.4-96.8c8.6-13.5,21.3-20.2,14.2-70.7c-7.1-50.5-39.9-165.6-39.9-8.3c0,49.4-25.8,17.9-26.6,46
	c-0.8,28.1,14.3,179.7-6.7,180.3c-22.7,0.6-9.7-162.6-9.7-183.2c0-20.6-25.4-14.2-24.3-44.9c1.1-30.7,8.2-58.3,8.2-58.3
	s2.6,50.8,13.1,52c10.5,1.1,10.5-56.9,10.5-56.9s3,57.3,13.1,57.7c10.1,0.4,9.9-53.5,9.9-53.5"/>
</svg>
